<svg width="40" height="40" viewBox="0 0 64 64" fill="none" xmlns="http://www.w3.org/2000/svg">
<rect x="31.8198" width="45" height="45" rx="8" transform="rotate(45 31.8198 0)" fill="#FF6F6F"/>
<path d="M28.4169 37.5238C27.7029 37.5238 27.1135 37.4048 26.6489 37.1668C26.1842 36.9288 25.8385 36.6171 25.6119 36.2318C25.3852 35.8351 25.2719 35.4045 25.2719 34.9398C25.2719 34.1238 25.5892 33.4778 26.2239 33.0018C26.8585 32.5258 27.7652 32.2878 28.9439 32.2878H31.1539V32.1348C31.1539 31.4775 30.9725 30.9845 30.6099 30.6558C30.2585 30.3271 29.7995 30.1628 29.2329 30.1628C28.7342 30.1628 28.2979 30.2875 27.9239 30.5368C27.5612 30.7748 27.3402 31.1318 27.2609 31.6078H25.4589C25.5155 30.9958 25.7195 30.4745 26.0709 30.0438C26.4335 29.6018 26.8869 29.2675 27.4309 29.0408C27.9862 28.8028 28.5925 28.6838 29.2499 28.6838C30.4285 28.6838 31.3409 28.9955 31.9869 29.6188C32.6329 30.2308 32.9559 31.0695 32.9559 32.1348V37.3198H31.3919L31.2389 35.8748C31.0009 36.3395 30.6552 36.7305 30.2019 37.0478C29.7485 37.3651 29.1535 37.5238 28.4169 37.5238ZM28.7739 36.0618C29.2612 36.0618 29.6692 35.9485 29.9979 35.7218C30.3379 35.4838 30.5985 35.1721 30.7799 34.7868C30.9725 34.4015 31.0915 33.9765 31.1369 33.5118H29.1309C28.4169 33.5118 27.9069 33.6365 27.6009 33.8858C27.3062 34.1351 27.1589 34.4468 27.1589 34.8208C27.1589 35.2061 27.3005 35.5121 27.5839 35.7388C27.8785 35.9541 28.2752 36.0618 28.7739 36.0618ZM36.077 27.2898C35.737 27.2898 35.4536 27.1878 35.227 26.9838C35.0116 26.7685 34.904 26.5021 34.904 26.1848C34.904 25.8675 35.0116 25.6068 35.227 25.4028C35.4536 25.1875 35.737 25.0798 36.077 25.0798C36.417 25.0798 36.6946 25.1875 36.91 25.4028C37.1366 25.6068 37.25 25.8675 37.25 26.1848C37.25 26.5021 37.1366 26.7685 36.91 26.9838C36.6946 27.1878 36.417 27.2898 36.077 27.2898ZM35.176 37.3198V28.8878H36.978V37.3198H35.176Z" fill="white"/>
</svg>
