<svg width="37" height="27" viewBox="0 0 37 27" fill="none" xmlns="http://www.w3.org/2000/svg">
<path d="M18.4319 11.7294C18.4319 11.7294 21.7832 14.7302 21.7832 18.4319C21.7832 22.1336 18.4319 25.1344 18.4319 25.1344C18.4319 25.1344 15.0807 22.1336 15.0807 18.4319C15.0807 14.7302 18.4319 11.7294 18.4319 11.7294Z" fill="#181818"/>
<path d="M0 2.27679V2.27679C4.19385 1.02549 8.60801 3.4109 9.85932 7.60474L14.9135 24.5444V24.5444C10.7197 25.7957 6.30552 23.4103 5.05422 19.2164L0 2.27679Z" fill="#181818"/>
<path d="M22.0865 24.5333V24.5333C26.2803 25.7846 30.6945 23.3992 31.9458 19.2053L37 2.26567V2.26567C32.8061 1.01437 28.392 3.39977 27.1407 7.59362L22.0865 24.5333Z" fill="#181818"/>
</svg>
